<svg width="954" height="581" viewBox="0 0 954 581" fill="none" xmlns="http://www.w3.org/2000/svg">
<path d="M0.098502 23.4681C0.0813947 19.3923 0.072841 17.3544 0.376521 15.6559C1.77137 7.85457 7.86193 1.73839 15.6573 0.310806C17.3545 0 19.3924 0 23.4683 0H926.44C931.142 0 933.492 0 935.453 0.35797C944.454 2.00193 951.498 9.04599 953.142 18.0475C953.5 20.0075 953.5 22.3583 953.5 27.06V411.48C953.5 416.609 953.5 419.174 953.109 421.312C951.316 431.132 943.632 438.816 933.812 440.609C931.674 441 929.109 441 923.98 441H802.789C797.952 441 795.534 441 793.507 441.366C784.207 443.045 776.88 450.242 775.035 459.511C774.633 461.53 774.59 463.949 774.504 468.785L772.91 558.047C772.839 562.042 772.803 564.04 772.471 565.708C770.947 573.365 764.894 579.311 757.211 580.698C755.537 581 753.539 581 749.544 581H317.181C312.832 581 310.658 581 308.841 580.694C299.603 579.135 292.365 571.897 290.806 562.659C290.5 560.842 290.5 558.668 290.5 554.319V554.319C290.5 549.377 290.5 546.906 290.152 544.842C288.381 534.344 280.156 526.119 269.658 524.348C267.594 524 265.123 524 260.181 524H220.011C218.608 524 217.906 524 217.314 523.963C207.755 523.365 200.135 515.745 199.537 506.186C199.5 505.594 199.5 504.892 199.5 503.489V503.489C199.5 501.642 199.5 500.719 199.451 499.939C198.664 487.361 188.639 477.336 176.061 476.549C175.281 476.5 174.358 476.5 172.511 476.5H25.2721C21.2269 476.5 19.2043 476.5 17.5159 476.192C9.7633 474.78 3.68692 468.73 2.24238 460.983C1.92779 459.296 1.9193 457.273 1.90232 453.228L0.098502 23.4681Z" fill="#D9D9D9" fill-opacity="0.49"/>
</svg>
